<svg width="41" height="47" viewBox="0 0 41 47" fill="none" xmlns="http://www.w3.org/2000/svg">
<path d="M20.784 46.896C16.7307 46.896 13.168 45.9573 10.096 44.08C7.024 42.16 4.61333 39.472 2.864 36.016C1.15733 32.56 0.304 28.528 0.304 23.92C0.304 19.2693 1.15733 15.2373 2.864 11.824C4.61333 8.368 7.024 5.70133 10.096 3.824C13.168 1.904 16.7093 0.943996 20.72 0.943996C24.048 0.943996 27.0347 1.56266 29.68 2.8C32.3253 4.03733 34.544 5.78666 36.336 8.048C38.128 10.3093 39.344 13.0187 39.984 16.176L30.128 18.864C29.7013 16.176 28.656 14.0853 26.992 12.592C25.3707 11.056 23.28 10.288 20.72 10.288C17.6053 10.288 15.1093 11.504 13.232 13.936C11.3547 16.3253 10.416 19.6533 10.416 23.92C10.416 28.144 11.3547 31.472 13.232 33.904C15.1093 36.336 17.6267 37.552 20.784 37.552C23.4293 37.552 25.5627 36.784 27.184 35.248C28.848 33.712 29.8933 31.5787 30.32 28.848L40.112 31.536C39.472 34.6933 38.256 37.424 36.464 39.728C34.7147 42.032 32.496 43.8027 29.808 45.04C27.1627 46.2773 24.1547 46.896 20.784 46.896Z" fill="black"/>
</svg>
