<svg width="866" height="92" viewBox="0 0 866 92" fill="none" xmlns="http://www.w3.org/2000/svg">
<path d="M78.272 52.8C78.272 56.32 77.408 59.552 75.68 62.496C73.952 65.376 71.648 67.68 68.768 69.408C65.888 71.136 62.656 72 59.072 72H0.704V62.4H59.072C61.76 62.4 64.032 61.472 65.888 59.616C67.744 57.696 68.672 55.424 68.672 52.8C68.672 50.176 67.744 47.936 65.888 46.08C64.032 44.16 61.76 43.2 59.072 43.2H19.904C16.384 43.2 13.152 42.336 10.208 40.608C7.328 38.88 5.024 36.576 3.296 33.696C1.568 30.752 0.704 27.52 0.704 24C0.704 20.48 1.568 17.28 3.296 14.4C5.024 11.456 7.328 9.12 10.208 7.392C13.152 5.664 16.384 4.8 19.904 4.8H73.472V14.4H19.904C17.28 14.4 15.008 15.36 13.088 17.28C11.232 19.136 10.304 21.376 10.304 24C10.304 26.624 11.232 28.896 13.088 30.816C15.008 32.672 17.28 33.6 19.904 33.6H59.072C62.656 33.6 65.888 34.464 68.768 36.192C71.648 37.92 73.952 40.256 75.68 43.2C77.408 46.08 78.272 49.28 78.272 52.8ZM149.662 72H113.662C110.014 72 106.59 71.328 103.39 69.984C100.254 68.576 97.4703 66.656 95.0383 64.224C92.6703 61.792 90.8143 59.008 89.4703 55.872C88.1263 52.672 87.4543 49.248 87.4543 45.6V19.2H97.0543V45.6C97.0543 48.672 97.7903 51.488 99.2623 54.048C100.798 56.544 102.814 58.56 105.31 60.096C107.806 61.568 110.59 62.336 113.662 62.4H140.062V19.2H149.662V72ZM175.506 7.2C175.506 9.184 174.802 10.88 173.394 12.288C172.05 13.696 170.354 14.4 168.306 14.4C166.322 14.4 164.626 13.696 163.218 12.288C161.81 10.88 161.106 9.184 161.106 7.2C161.106 5.216 161.81 3.52 163.218 2.112C164.626 0.703995 166.322 -5.72205e-06 168.306 -5.72205e-06C170.354 -5.72205e-06 172.05 0.703995 173.394 2.112C174.802 3.52 175.506 5.216 175.506 7.2ZM173.106 74.4C173.106 77.472 172.338 80.288 170.802 82.848C169.33 85.408 167.314 87.424 164.754 88.896C162.194 90.432 159.378 91.2 156.306 91.2H134.706V81.6H156.306C158.29 81.6 159.986 80.896 161.394 79.488C162.802 78.08 163.506 76.384 163.506 74.4V19.2H173.106V74.4ZM247.039 72H199.039C195.967 72 193.151 71.264 190.591 69.792C188.031 68.256 185.983 66.24 184.447 63.744C182.975 61.184 182.239 58.336 182.239 55.2C182.239 52.064 182.975 49.248 184.447 46.752C185.983 44.192 188.031 42.176 190.591 40.704C193.151 39.168 195.967 38.4 199.039 38.4H232.639V48H199.039C197.055 48 195.359 48.704 193.951 50.112C192.543 51.52 191.839 53.216 191.839 55.2C191.839 57.184 192.543 58.88 193.951 60.288C195.359 61.696 197.055 62.4 199.039 62.4H237.439V36C237.439 34.016 236.735 32.32 235.327 30.912C233.919 29.504 232.223 28.8 230.239 28.8H191.839V19.2H230.239C233.375 19.2 236.191 19.968 238.687 21.504C241.247 22.976 243.263 24.992 244.735 27.552C246.271 30.048 247.039 32.864 247.039 36V72ZM270.043 72H260.443V19.2H296.443C300.091 19.2 303.483 19.904 306.619 21.312C309.819 22.656 312.603 24.544 314.971 26.976C317.403 29.408 319.291 32.224 320.635 35.424C321.979 38.56 322.651 41.952 322.651 45.6V72H313.051V45.6C313.051 42.528 312.315 39.744 310.843 37.248C309.371 34.688 307.355 32.64 304.795 31.104C302.299 29.568 299.515 28.8 296.443 28.8H270.043V72ZM450.927 72H437.967L403.695 37.44L382.383 52.8V72H372.783V4.8H382.383V42.24L435.087 4.8H449.103L410.991 32.16L450.927 72ZM515.194 72H479.194C475.546 72 472.122 71.328 468.922 69.984C465.786 68.576 463.002 66.656 460.57 64.224C458.202 61.792 456.346 59.008 455.002 55.872C453.658 52.672 452.986 49.248 452.986 45.6V19.2H462.586V45.6C462.586 48.672 463.322 51.488 464.794 54.048C466.33 56.544 468.346 58.56 470.842 60.096C473.338 61.568 476.122 62.336 479.194 62.4H505.594V19.2H515.194V72ZM538.637 72H529.037V19.2H579.629C583.277 19.2 586.669 19.904 589.805 21.312C593.005 22.656 595.789 24.544 598.157 26.976C600.589 29.408 602.477 32.224 603.821 35.424C605.165 38.56 605.837 41.952 605.837 45.6V72H596.237V45.6C596.237 42.528 595.501 39.744 594.029 37.248C592.557 34.688 590.541 32.64 587.981 31.104C585.485 29.568 582.701 28.8 579.629 28.8H572.237V72H562.637V28.8H538.637V72ZM678.852 72H630.852C627.78 72 624.964 71.264 622.404 69.792C619.844 68.256 617.796 66.24 616.26 63.744C614.788 61.184 614.052 58.336 614.052 55.2C614.052 52.064 614.788 49.248 616.26 46.752C617.796 44.192 619.844 42.176 622.404 40.704C624.964 39.168 627.78 38.4 630.852 38.4H664.452V48H630.852C628.868 48 627.172 48.704 625.764 50.112C624.356 51.52 623.652 53.216 623.652 55.2C623.652 57.184 624.356 58.88 625.764 60.288C627.172 61.696 628.868 62.4 630.852 62.4H669.252V36C669.252 34.016 668.548 32.32 667.14 30.912C665.732 29.504 664.036 28.8 662.052 28.8H623.652V19.2H662.052C665.188 19.2 668.004 19.968 670.5 21.504C673.06 22.976 675.076 24.992 676.548 27.552C678.084 30.048 678.852 32.864 678.852 36V72ZM744.672 28.8H708.672C706.688 28.8 704.992 29.504 703.584 30.912C702.176 32.32 701.472 34.016 701.472 36V72H691.872V36C691.872 32.864 692.608 30.048 694.08 27.552C695.616 24.992 697.664 22.976 700.224 21.504C702.784 19.968 705.6 19.2 708.672 19.2H744.672V28.8ZM865.114 72H852.154L817.882 37.44L796.57 52.8V72H786.97V4.8H796.57V42.24L849.274 4.8H863.29L825.178 32.16L865.114 72Z" fill="white"/>
</svg>
