<svg width="91" height="78" viewBox="0 0 91 78" fill="none" xmlns="http://www.w3.org/2000/svg">
<mask id="path-1-outside-1_2_2" maskUnits="userSpaceOnUse" x="0" y="0" width="91" height="78" fill="black">
<rect fill="white" width="91" height="78"/>
<path d="M80.6406 54.1875C80.6406 51.4062 80.4219 49.2188 79.9844 47.625C79.5469 46.0312 78.5625 44.8594 77.0312 44.1094C75.5 43.3281 73.125 42.8281 69.9062 42.6094C66.6875 42.3594 62.2812 42.1875 56.6875 42.0938L30.625 41.7188C24.1875 41.625 19.0156 41.2344 15.1094 40.5469C11.2031 39.8594 8.25 38.7812 6.25 37.3125C4.25 35.8125 2.90625 33.8125 2.21875 31.3125C1.5625 28.8125 1.23438 25.6875 1.23438 21.9375C1.23438 17.8438 1.6875 14.4688 2.59375 11.8125C3.53125 9.15625 5.20312 7.07812 7.60938 5.57812C10.0469 4.07812 13.4844 3.03125 17.9219 2.4375C22.3594 1.8125 28.0938 1.5 35.125 1.5H55.1875C61.5625 1.5 66.875 1.70312 71.125 2.10938C75.375 2.51562 78.75 3.45312 81.25 4.92188C83.75 6.39062 85.5312 8.67188 86.5938 11.7656C87.6875 14.8594 88.2344 19.1094 88.2344 24.5156H79.2344C79.2344 20.3281 78.8281 17.1719 78.0156 15.0469C77.2344 12.8906 75.9219 11.4219 74.0781 10.6406C72.2656 9.85938 69.8125 9.4375 66.7188 9.375C63.625 9.3125 59.7812 9.28125 55.1875 9.28125H35.5938C30 9.28125 25.5156 9.39062 22.1406 9.60938C18.7969 9.82812 16.2656 10.3281 14.5469 11.1094C12.8281 11.8906 11.6719 13.1406 11.0781 14.8594C10.5156 16.5781 10.2344 18.9375 10.2344 21.9375C10.2344 24.4688 10.4375 26.5 10.8438 28.0312C11.25 29.5625 12.1562 30.7344 13.5625 31.5469C15 32.3281 17.2031 32.875 20.1719 33.1875C23.1406 33.4688 27.1875 33.6406 32.3125 33.7031L60.25 34.0781C66.8125 34.1719 72.0469 34.5625 75.9531 35.25C79.8906 35.9062 82.8281 36.9844 84.7656 38.4844C86.7344 39.9844 88.0312 42.0156 88.6562 44.5781C89.3125 47.1094 89.6406 50.3125 89.6406 54.1875C89.6406 58.4062 89.2344 61.9531 88.4219 64.8281C87.6406 67.6719 86.1094 69.9531 83.8281 71.6719C81.5469 73.3906 78.25 74.625 73.9375 75.375C69.625 76.125 63.9531 76.5 56.9219 76.5H34.9844C28.5781 76.5 23.2031 76.2188 18.8594 75.6562C14.5156 75.0938 11.0469 73.9688 8.45312 72.2812C5.89062 70.5625 4.04688 68.0156 2.92188 64.6406C1.79688 61.2656 1.23438 56.7656 1.23438 51.1406H10.2344C10.2344 55.5469 10.5938 58.9531 11.3125 61.3594C12.0312 63.7656 13.2812 65.5 15.0625 66.5625C16.875 67.5938 19.3906 68.2188 22.6094 68.4375C25.8594 68.625 29.9844 68.7188 34.9844 68.7188H56.4531C62.0469 68.7188 66.4688 68.5469 69.7188 68.2031C72.9688 67.8281 75.375 67.1406 76.9375 66.1406C78.5 65.1094 79.5 63.6406 79.9375 61.7344C80.4062 59.8281 80.6406 57.3125 80.6406 54.1875Z"/>
</mask>
<path d="M80.6406 54.1875C80.6406 51.4062 80.4219 49.2188 79.9844 47.625C79.5469 46.0312 78.5625 44.8594 77.0312 44.1094C75.5 43.3281 73.125 42.8281 69.9062 42.6094C66.6875 42.3594 62.2812 42.1875 56.6875 42.0938L30.625 41.7188C24.1875 41.625 19.0156 41.2344 15.1094 40.5469C11.2031 39.8594 8.25 38.7812 6.25 37.3125C4.25 35.8125 2.90625 33.8125 2.21875 31.3125C1.5625 28.8125 1.23438 25.6875 1.23438 21.9375C1.23438 17.8438 1.6875 14.4688 2.59375 11.8125C3.53125 9.15625 5.20312 7.07812 7.60938 5.57812C10.0469 4.07812 13.4844 3.03125 17.9219 2.4375C22.3594 1.8125 28.0938 1.5 35.125 1.5H55.1875C61.5625 1.5 66.875 1.70312 71.125 2.10938C75.375 2.51562 78.75 3.45312 81.25 4.92188C83.75 6.39062 85.5312 8.67188 86.5938 11.7656C87.6875 14.8594 88.2344 19.1094 88.2344 24.5156H79.2344C79.2344 20.3281 78.8281 17.1719 78.0156 15.0469C77.2344 12.8906 75.9219 11.4219 74.0781 10.6406C72.2656 9.85938 69.8125 9.4375 66.7188 9.375C63.625 9.3125 59.7812 9.28125 55.1875 9.28125H35.5938C30 9.28125 25.5156 9.39062 22.1406 9.60938C18.7969 9.82812 16.2656 10.3281 14.5469 11.1094C12.8281 11.8906 11.6719 13.1406 11.0781 14.8594C10.5156 16.5781 10.2344 18.9375 10.2344 21.9375C10.2344 24.4688 10.4375 26.5 10.8438 28.0312C11.25 29.5625 12.1562 30.7344 13.5625 31.5469C15 32.3281 17.2031 32.875 20.1719 33.1875C23.1406 33.4688 27.1875 33.6406 32.3125 33.7031L60.25 34.0781C66.8125 34.1719 72.0469 34.5625 75.9531 35.25C79.8906 35.9062 82.8281 36.9844 84.7656 38.4844C86.7344 39.9844 88.0312 42.0156 88.6562 44.5781C89.3125 47.1094 89.6406 50.3125 89.6406 54.1875C89.6406 58.4062 89.2344 61.9531 88.4219 64.8281C87.6406 67.6719 86.1094 69.9531 83.8281 71.6719C81.5469 73.3906 78.25 74.625 73.9375 75.375C69.625 76.125 63.9531 76.5 56.9219 76.5H34.9844C28.5781 76.5 23.2031 76.2188 18.8594 75.6562C14.5156 75.0938 11.0469 73.9688 8.45312 72.2812C5.89062 70.5625 4.04688 68.0156 2.92188 64.6406C1.79688 61.2656 1.23438 56.7656 1.23438 51.1406H10.2344C10.2344 55.5469 10.5938 58.9531 11.3125 61.3594C12.0312 63.7656 13.2812 65.5 15.0625 66.5625C16.875 67.5938 19.3906 68.2188 22.6094 68.4375C25.8594 68.625 29.9844 68.7188 34.9844 68.7188H56.4531C62.0469 68.7188 66.4688 68.5469 69.7188 68.2031C72.9688 67.8281 75.375 67.1406 76.9375 66.1406C78.5 65.1094 79.5 63.6406 79.9375 61.7344C80.4062 59.8281 80.6406 57.3125 80.6406 54.1875Z" fill="white"/>
<path d="M77.0312 44.1094L76.5768 45.0001L76.5841 45.0038L76.5914 45.0074L77.0312 44.1094ZM69.9062 42.6094L69.8288 43.6064L69.8384 43.6071L69.9062 42.6094ZM56.6875 42.0938L56.7043 41.0939L56.7019 41.0939L56.6875 42.0938ZM30.625 41.7188L30.6104 42.7186L30.6106 42.7186L30.625 41.7188ZM6.25 37.3125L5.64997 38.1125L5.65809 38.1185L6.25 37.3125ZM2.21875 31.3125L1.25145 31.5664L1.25454 31.5777L2.21875 31.3125ZM2.59375 11.8125L1.65071 11.4797L1.64732 11.4896L2.59375 11.8125ZM7.60938 5.57812L7.08527 4.72645L7.08037 4.72951L7.60938 5.57812ZM17.9219 2.4375L18.0545 3.42869L18.0613 3.42773L17.9219 2.4375ZM86.5938 11.7656L85.6479 12.0905L85.6509 12.0989L86.5938 11.7656ZM88.2344 24.5156V25.5156H89.2344V24.5156H88.2344ZM79.2344 24.5156H78.2344V25.5156H79.2344V24.5156ZM78.0156 15.0469L77.0754 15.3875L77.0784 15.3958L77.0816 15.404L78.0156 15.0469ZM74.0781 10.6406L73.6823 11.559L73.688 11.5614L74.0781 10.6406ZM22.1406 9.60938L22.0759 8.61147L22.0753 8.61151L22.1406 9.60938ZM11.0781 14.8594L10.1329 14.5329L10.1303 14.5406L10.1277 14.5483L11.0781 14.8594ZM13.5625 31.5469L13.0622 32.4127L13.0735 32.4193L13.085 32.4255L13.5625 31.5469ZM20.1719 33.1875L20.0672 34.1821L20.0776 34.183L20.1719 33.1875ZM32.3125 33.7031L32.3259 32.7032L32.3247 32.7032L32.3125 33.7031ZM60.25 34.0781L60.2643 33.0782L60.2634 33.0782L60.25 34.0781ZM75.9531 35.25L75.7798 36.2349L75.7887 36.2364L75.9531 35.25ZM84.7656 38.4844L84.1534 39.2751L84.1596 39.2798L84.7656 38.4844ZM88.6562 44.5781L87.6847 44.8151L87.6864 44.8221L87.6883 44.8291L88.6562 44.5781ZM88.4219 64.8281L87.4595 64.5562L87.4576 64.5632L88.4219 64.8281ZM83.8281 71.6719L83.2264 70.8732L83.8281 71.6719ZM8.45312 72.2812L7.89604 73.1118L7.90778 73.1195L8.45312 72.2812ZM1.23438 51.1406V50.1406H0.234375V51.1406H1.23438ZM10.2344 51.1406H11.2344V50.1406H10.2344V51.1406ZM15.0625 66.5625L14.5502 67.4213L14.559 67.4266L14.568 67.4317L15.0625 66.5625ZM22.6094 68.4375L22.5416 69.4353L22.5518 69.4358L22.6094 68.4375ZM69.7188 68.2031L69.8239 69.1976L69.8334 69.1965L69.7188 68.2031ZM76.9375 66.1406L77.4766 66.983L77.4883 66.9752L76.9375 66.1406ZM79.9375 61.7344L78.9664 61.4956L78.9646 61.5031L78.9628 61.5107L79.9375 61.7344ZM80.6406 54.1875H81.6406C81.6406 51.3688 81.4205 49.0791 80.9487 47.3603L79.9844 47.625L79.02 47.8897C79.4232 49.3584 79.6406 51.4437 79.6406 54.1875H80.6406ZM79.9844 47.625L80.9487 47.3603C80.4326 45.4801 79.2506 44.0829 77.4711 43.2113L77.0312 44.1094L76.5914 45.0074C77.8744 45.6359 78.6612 46.5824 79.02 47.8897L79.9844 47.625ZM77.0312 44.1094L77.4857 43.2186C75.7701 42.3433 73.2302 41.833 69.9741 41.6117L69.9062 42.6094L69.8384 43.6071C73.0198 43.8233 75.2299 44.3129 76.5768 45.0001L77.0312 44.1094ZM69.9062 42.6094L69.9837 41.6124C66.7354 41.3601 62.3059 41.1878 56.7043 41.0939L56.6875 42.0938L56.6707 43.0936C62.2566 43.1872 66.6396 43.3587 69.8288 43.6064L69.9062 42.6094ZM56.6875 42.0938L56.7019 41.0939L30.6394 40.7189L30.625 41.7188L30.6106 42.7186L56.6731 43.0936L56.6875 42.0938ZM30.625 41.7188L30.6396 40.7189C24.2269 40.6255 19.1145 40.2364 15.2827 39.562L15.1094 40.5469L14.936 41.5317C18.9168 42.2323 24.1481 42.6245 30.6104 42.7186L30.625 41.7188ZM15.1094 40.5469L15.2827 39.562C11.4471 38.8869 8.66549 37.8457 6.84191 36.5065L6.25 37.3125L5.65809 38.1185C7.83451 39.7168 10.9592 40.8318 14.936 41.5317L15.1094 40.5469ZM6.25 37.3125L6.85 36.5125C5.03428 35.1507 3.81403 33.3422 3.18296 31.0473L2.21875 31.3125L1.25454 31.5777C1.99847 34.2828 3.46572 36.4743 5.65 38.1125L6.25 37.3125ZM2.21875 31.3125L3.18598 31.0586C2.55884 28.6695 2.23438 25.6367 2.23438 21.9375H1.23438H0.234375C0.234375 25.7383 0.566157 28.9555 1.25152 31.5664L2.21875 31.3125ZM1.23438 21.9375H2.23438C2.23438 17.9079 2.68164 14.6518 3.54018 12.1354L2.59375 11.8125L1.64732 11.4896C0.693358 14.2857 0.234375 17.7796 0.234375 21.9375H1.23438ZM2.59375 11.8125L3.53674 12.1453C4.3982 9.70452 5.92325 7.80761 8.13838 6.42674L7.60938 5.57812L7.08037 4.72951C4.483 6.34864 2.6643 8.60798 1.65076 11.4797L2.59375 11.8125ZM7.60938 5.57812L8.13347 6.42978C10.4034 5.03288 13.6858 4.01321 18.0545 3.42867L17.9219 2.4375L17.7893 1.44633C13.283 2.04929 9.69031 3.12337 7.08528 4.72647L7.60938 5.57812ZM17.9219 2.4375L18.0613 3.42773C22.4344 2.81181 28.1174 2.5 35.125 2.5V1.5V0.5C28.0701 0.5 22.2844 0.813193 17.7824 1.44727L17.9219 2.4375ZM35.125 1.5V2.5H55.1875V1.5V0.5H35.125V1.5ZM55.1875 1.5V2.5C61.5446 2.5 66.8228 2.70269 71.0298 3.10484L71.125 2.10938L71.2202 1.11391C66.9272 0.70356 61.5804 0.5 55.1875 0.5V1.5ZM71.125 2.10938L71.0298 3.10484C75.1976 3.50323 78.4143 4.41568 80.7435 5.78409L81.25 4.92188L81.7565 4.05966C79.0857 2.49057 75.5524 1.52802 71.2202 1.11391L71.125 2.10938ZM81.25 4.92188L80.7435 5.78409C83.0111 7.11633 84.6524 9.19166 85.648 12.0904L86.5938 11.7656L87.5395 11.4408C86.4101 8.15209 84.4889 5.66492 81.7565 4.05966L81.25 4.92188ZM86.5938 11.7656L85.6509 12.0989C86.6902 15.0387 87.2344 19.1593 87.2344 24.5156H88.2344H89.2344C89.2344 19.0595 88.6848 14.68 87.5366 11.4323L86.5938 11.7656ZM88.2344 24.5156V23.5156H79.2344V24.5156V25.5156H88.2344V24.5156ZM79.2344 24.5156H80.2344C80.2344 20.291 79.8283 16.9876 78.9497 14.6897L78.0156 15.0469L77.0816 15.404C77.828 17.3561 78.2344 20.3653 78.2344 24.5156H79.2344ZM78.0156 15.0469L78.9558 14.7062C78.095 12.3303 76.6063 10.6258 74.4683 9.71987L74.0781 10.6406L73.688 11.5614C75.2375 12.218 76.3738 13.451 77.0754 15.3875L78.0156 15.0469ZM74.0781 10.6406L74.474 9.7223C72.4947 8.86916 69.8967 8.439 66.7389 8.3752L66.7188 9.375L66.6986 10.3748C69.7283 10.436 72.0366 10.8496 73.6823 11.5589L74.0781 10.6406ZM66.7188 9.375L66.7389 8.3752C63.6361 8.31252 59.7851 8.28125 55.1875 8.28125V9.28125V10.2812C59.7774 10.2812 63.6139 10.3125 66.6986 10.3748L66.7188 9.375ZM55.1875 9.28125V8.28125H35.5938V9.28125V10.2812H55.1875V9.28125ZM35.5938 9.28125V8.28125C29.9904 8.28125 25.4818 8.39072 22.0759 8.61147L22.1406 9.60938L22.2053 10.6073C25.5495 10.3905 30.0096 10.2812 35.5938 10.2812V9.28125ZM22.1406 9.60938L22.0753 8.61151C18.6896 8.83301 16.0158 9.34321 14.1331 10.199L14.5469 11.1094L14.9607 12.0197C16.5154 11.313 18.9042 10.8232 22.2059 10.6072L22.1406 9.60938ZM14.5469 11.1094L14.1331 10.199C12.1754 11.0889 10.82 12.5439 10.1329 14.5329L11.0781 14.8594L12.0233 15.1859C12.5237 13.7374 13.4809 12.6924 14.9607 12.0197L14.5469 11.1094ZM11.0781 14.8594L10.1277 14.5483C9.51784 16.4119 9.23438 18.8918 9.23438 21.9375H10.2344H11.2344C11.2344 18.9832 11.5134 16.7444 12.0285 15.1704L11.0781 14.8594ZM10.2344 21.9375H9.23438C9.23438 24.5103 9.43959 26.6383 9.87719 28.2877L10.8438 28.0312L11.8103 27.7748C11.4354 26.3617 11.2344 24.4272 11.2344 21.9375H10.2344ZM10.8438 28.0312L9.87719 28.2877C10.3535 30.0832 11.4322 31.4709 13.0622 32.4127L13.5625 31.5469L14.0628 30.681C12.8803 29.9978 12.1465 29.0418 11.8103 27.7748L10.8438 28.0312ZM13.5625 31.5469L13.085 32.4255C14.6971 33.3017 17.0576 33.8652 20.0672 34.182L20.1719 33.1875L20.2766 32.193C17.3486 31.8848 15.3029 31.3546 14.04 30.6683L13.5625 31.5469ZM20.1719 33.1875L20.0776 34.183C23.0862 34.4681 27.1643 34.6404 32.3003 34.7031L32.3125 33.7031L32.3247 32.7032C27.2107 32.6408 23.1951 32.4694 20.2662 32.192L20.1719 33.1875ZM32.3125 33.7031L32.2991 34.703L60.2366 35.078L60.25 34.0781L60.2634 33.0782L32.3259 32.7032L32.3125 33.7031ZM60.25 34.0781L60.2357 35.078C66.7746 35.1714 71.9489 35.5606 75.7798 36.2349L75.9531 35.25L76.1265 34.2651C72.1449 33.5644 66.8504 33.1723 60.2643 33.0782L60.25 34.0781ZM75.9531 35.25L75.7887 36.2364C79.6545 36.8807 82.4043 37.921 84.1535 39.2751L84.7656 38.4844L85.3778 37.6937C83.2519 36.0478 80.1268 34.9318 76.1175 34.2636L75.9531 35.25ZM84.7656 38.4844L84.1596 39.2798C85.9337 40.6315 87.1102 42.4594 87.6847 44.8151L88.6562 44.5781L89.6278 44.3412C88.9523 41.5719 87.5351 39.3372 85.3717 37.6889L84.7656 38.4844ZM88.6562 44.5781L87.6883 44.8291C88.3157 47.2493 88.6406 50.3607 88.6406 54.1875H89.6406H90.6406C90.6406 50.2643 90.3093 46.9695 89.6242 44.3272L88.6562 44.5781ZM89.6406 54.1875H88.6406C88.6406 58.3489 88.2391 61.7977 87.4596 64.5562L88.4219 64.8281L89.3842 65.1001C90.2296 62.1086 90.6406 58.4636 90.6406 54.1875H89.6406ZM88.4219 64.8281L87.4576 64.5632C86.7328 67.2013 85.325 69.292 83.2264 70.8732L83.8281 71.6719L84.4299 72.4706C86.8937 70.6142 88.5484 68.1424 89.3861 65.093L88.4219 64.8281ZM83.8281 71.6719L83.2264 70.8732C81.1214 72.4591 77.9981 73.6538 73.7662 74.3898L73.9375 75.375L74.1088 76.3602C78.5019 75.5962 81.9723 74.3222 84.4299 72.4706L83.8281 71.6719ZM73.9375 75.375L73.7662 74.3898C69.5336 75.1259 63.9257 75.5 56.9219 75.5V76.5V77.5C63.9806 77.5 69.7164 77.1241 74.1088 76.3602L73.9375 75.375ZM56.9219 76.5V75.5H34.9844V76.5V77.5H56.9219V76.5ZM34.9844 76.5V75.5C28.6034 75.5 23.2744 75.2196 18.9878 74.6645L18.8594 75.6562L18.731 76.648C23.1318 77.2179 28.5529 77.5 34.9844 77.5V76.5ZM18.8594 75.6562L18.9878 74.6645C14.7351 74.1138 11.4255 73.0221 8.99847 71.443L8.45312 72.2812L7.90778 73.1195C10.6683 74.9154 14.2961 76.0737 18.731 76.648L18.8594 75.6562ZM8.45312 72.2812L9.01016 71.4508C6.65892 69.8737 4.93673 67.5229 3.87056 64.3244L2.92188 64.6406L1.97319 64.9569C3.15702 68.5083 5.12233 71.2513 7.89609 73.1117L8.45312 72.2812ZM2.92188 64.6406L3.87056 64.3244C2.79339 61.0929 2.23438 56.713 2.23438 51.1406H1.23438H0.234375C0.234375 56.8182 0.800362 61.4384 1.97319 64.9569L2.92188 64.6406ZM1.23438 51.1406V52.1406H10.2344V51.1406V50.1406H1.23438V51.1406ZM10.2344 51.1406H9.23438C9.23438 55.5825 9.59452 59.1019 10.3543 61.6456L11.3125 61.3594L12.2707 61.0732C11.593 58.8044 11.2344 55.5112 11.2344 51.1406H10.2344ZM11.3125 61.3594L10.3543 61.6456C11.1288 64.2385 12.5105 66.2046 14.5502 67.4213L15.0625 66.5625L15.5748 65.7037C14.052 64.7954 12.9337 63.2927 12.2707 61.0732L11.3125 61.3594ZM15.0625 66.5625L14.568 67.4317C16.5633 68.5669 19.2468 69.2113 22.5416 69.4352L22.6094 68.4375L22.6772 67.4398C19.5344 67.2262 17.1867 66.6206 15.557 65.6933L15.0625 66.5625ZM22.6094 68.4375L22.5518 69.4358C25.8282 69.6249 29.9741 69.7188 34.9844 69.7188V68.7188V67.7188C29.9946 67.7188 25.8905 67.6251 22.667 67.4392L22.6094 68.4375ZM34.9844 68.7188V69.7188H56.4531V68.7188V67.7188H34.9844V68.7188ZM56.4531 68.7188V69.7188C62.0611 69.7188 66.523 69.5467 69.8239 69.1976L69.7188 68.2031L69.6136 67.2087C66.4145 67.547 62.0326 67.7188 56.4531 67.7188V68.7188ZM69.7188 68.2031L69.8334 69.1965C73.1359 68.8155 75.7226 68.1054 77.4766 66.9829L76.9375 66.1406L76.3984 65.2984C75.0274 66.1758 72.8016 66.8408 69.6041 67.2097L69.7188 68.2031ZM76.9375 66.1406L77.4883 66.9752C79.2758 65.7955 80.42 64.1025 80.9122 61.9581L79.9375 61.7344L78.9628 61.5107C78.58 63.1788 77.7242 64.4232 76.3867 65.306L76.9375 66.1406ZM79.9375 61.7344L80.9086 61.9732C81.4044 59.9568 81.6406 57.3516 81.6406 54.1875H80.6406H79.6406C79.6406 57.2734 79.4081 59.6994 78.9664 61.4956L79.9375 61.7344Z" fill="white" mask="url(#path-1-outside-1_2_2)"/>
</svg>
